<?xml version="1.0" encoding="UTF-8" standalone="no"?>
<!DOCTYPE svg PUBLIC "-//W3C//DTD SVG 1.1//EN"
 "http://www.w3.org/Graphics/SVG/1.1/DTD/svg11.dtd">
<!-- Generated by graphviz version 2.40.1 (20161225.0304)
 -->
<!-- Title: salt package flow Pages: 1 -->
<svg width="598pt" height="152pt"
 viewBox="0.00 0.00 598.00 152.00" xmlns="http://www.w3.org/2000/svg" xmlns:xlink="http://www.w3.org/1999/xlink">
<g id="graph0" class="graph" transform="scale(1 1) rotate(0) translate(4 148)">
<title>salt package flow</title>
<polygon fill="#e8e8e7" stroke="transparent" points="-4,4 -4,-148 594,-148 594,4 -4,4"/>
<!-- saltstack:products:next -->
<g id="node1" class="node">
<title>saltstack:products:next</title>
<polygon fill="none" stroke="#000000" points="113,-63 0,-63 0,-27 113,-27 113,-63"/>
<text text-anchor="middle" x="56.5" y="-42.5" font-family="Times,serif" font-size="10.00" fill="#000000">saltstack:products:next</text>
</g>
<!-- saltstack:products:testing -->
<g id="node2" class="node">
<title>saltstack:products:testing</title>
<polygon fill="none" stroke="#000000" points="273,-90 149,-90 149,-54 273,-54 273,-90"/>
<text text-anchor="middle" x="211" y="-69.5" font-family="Times,serif" font-size="10.00" fill="#000000">saltstack:products:testing</text>
</g>
<!-- saltstack:products:next&#45;&gt;saltstack:products:testing -->
<g id="edge1" class="edge">
<title>saltstack:products:next&#45;&gt;saltstack:products:testing</title>
<path fill="none" stroke="#000000" d="M113.1528,-54.9005C121.5093,-56.3608 130.2127,-57.8818 138.8313,-59.388"/>
<polygon fill="#000000" stroke="#000000" points="138.4309,-62.871 148.8841,-61.1448 139.636,-55.9755 138.4309,-62.871"/>
</g>
<!-- saltstack:testing -->
<g id="node3" class="node">
<title>saltstack:testing</title>
<polygon fill="none" stroke="#000000" points="253.5,-36 168.5,-36 168.5,0 253.5,0 253.5,-36"/>
<text text-anchor="middle" x="211" y="-15.5" font-family="Times,serif" font-size="10.00" fill="#000000">saltstack:testing</text>
</g>
<!-- saltstack:products:next&#45;&gt;saltstack:testing -->
<g id="edge2" class="edge">
<title>saltstack:products:next&#45;&gt;saltstack:testing</title>
<path fill="none" stroke="#000000" d="M113.1528,-35.0995C127.9872,-32.5071 143.9149,-29.7236 158.5211,-27.1711"/>
<polygon fill="#000000" stroke="#000000" points="159.1442,-30.6153 168.3924,-25.446 157.9391,-23.7198 159.1442,-30.6153"/>
</g>
<!-- saltstack:products -->
<g id="node4" class="node">
<title>saltstack:products</title>
<polygon fill="none" stroke="#000000" points="402,-90 309,-90 309,-54 402,-54 402,-90"/>
<text text-anchor="middle" x="355.5" y="-69.5" font-family="Times,serif" font-size="10.00" fill="#000000">saltstack:products</text>
</g>
<!-- saltstack:products:testing&#45;&gt;saltstack:products -->
<g id="edge3" class="edge">
<title>saltstack:products:testing&#45;&gt;saltstack:products</title>
<path fill="none" stroke="#000000" d="M273.1196,-72C281.6032,-72 290.2768,-72 298.6602,-72"/>
<polygon fill="#000000" stroke="#000000" points="298.7098,-75.5001 308.7097,-72 298.7097,-68.5001 298.7098,-75.5001"/>
</g>
<!-- saltstack -->
<g id="node7" class="node">
<title>saltstack</title>
<polygon fill="none" stroke="#000000" points="382.5,-36 328.5,-36 328.5,0 382.5,0 382.5,-36"/>
<text text-anchor="middle" x="355.5" y="-15.5" font-family="Times,serif" font-size="10.00" fill="#000000">saltstack</text>
</g>
<!-- saltstack:testing&#45;&gt;saltstack -->
<g id="edge6" class="edge">
<title>saltstack:testing&#45;&gt;saltstack</title>
<path fill="none" stroke="#000000" d="M253.5732,-18C274.0377,-18 298.3469,-18 318.0917,-18"/>
<polygon fill="#000000" stroke="#000000" points="318.2464,-21.5001 328.2464,-18 318.2463,-14.5001 318.2464,-21.5001"/>
</g>
<!-- ibs://Devel:Galaxy:Manager:xxx -->
<g id="node5" class="node">
<title>ibs://Devel:Galaxy:Manager:xxx</title>
<polygon fill="none" stroke="#000000" points="590,-144 438,-144 438,-108 590,-108 590,-144"/>
<text text-anchor="middle" x="514" y="-123.5" font-family="Times,serif" font-size="10.00" fill="#000000">ibs://Devel:Galaxy:Manager:xxx</text>
</g>
<!-- saltstack:products&#45;&gt;ibs://Devel:Galaxy:Manager:xxx -->
<g id="edge4" class="edge">
<title>saltstack:products&#45;&gt;ibs://Devel:Galaxy:Manager:xxx</title>
<path fill="none" stroke="#000000" d="M402.198,-87.9097C417.6174,-93.163 435.0269,-99.0943 451.4365,-104.685"/>
<polygon fill="#000000" stroke="#000000" points="450.3656,-108.0176 460.9601,-107.9296 452.6231,-101.3916 450.3656,-108.0176"/>
</g>
<!-- openSUSE:Leap:xx.x:Update -->
<g id="node6" class="node">
<title>openSUSE:Leap:xx.x:Update</title>
<polygon fill="none" stroke="#000000" points="583.5,-90 444.5,-90 444.5,-54 583.5,-54 583.5,-90"/>
<text text-anchor="middle" x="514" y="-69.5" font-family="Times,serif" font-size="10.00" fill="#000000">openSUSE:Leap:xx.x:Update</text>
</g>
<!-- saltstack:products&#45;&gt;openSUSE:Leap:xx.x:Update -->
<g id="edge5" class="edge">
<title>saltstack:products&#45;&gt;openSUSE:Leap:xx.x:Update</title>
<path fill="none" stroke="#000000" d="M402.198,-72C412.3354,-72 423.333,-72 434.3411,-72"/>
<polygon fill="#000000" stroke="#000000" points="434.4292,-75.5001 444.4291,-72 434.4291,-68.5001 434.4292,-75.5001"/>
</g>
<!-- openSUSE:Factory -->
<g id="node8" class="node">
<title>openSUSE:Factory</title>
<polygon fill="none" stroke="#000000" points="562.5,-36 465.5,-36 465.5,0 562.5,0 562.5,-36"/>
<text text-anchor="middle" x="514" y="-15.5" font-family="Times,serif" font-size="10.00" fill="#000000">openSUSE:Factory</text>
</g>
<!-- saltstack&#45;&gt;openSUSE:Factory -->
<g id="edge7" class="edge">
<title>saltstack&#45;&gt;openSUSE:Factory</title>
<path fill="none" stroke="#000000" d="M382.7471,-18C402.662,-18 430.421,-18 455.284,-18"/>
<polygon fill="#000000" stroke="#000000" points="455.3677,-21.5001 465.3676,-18 455.3676,-14.5001 455.3677,-21.5001"/>
</g>
</g>
</svg>
